# xmcd CD database file generated by freedbAccess_ocx
#
# Track frame offsets:
#       150
#       12537
#       25830
#       40985
#       53630
#       68999
#       83329
#       94696
#       109107
#       124144
#       137455
#       147482
#       160984
#
# Disc length: 2315 seconds
#
# Revision: 0
# Processed by: cddbd v1.5.1PL0 Copyright (c) Steve Scherf et al.
# Submitted via: CDnGo 2.00
#
DISCID=a909090d
DTITLE=David Fiorenza - Fiology
DYEAR=2005
DGENRE=Country
TTITLE0=Where I'm Goin'
TTITLE1=Make You Stay
TTITLE2=New York City Dreaming - Live
TTITLE3=Tan, Rested, and Ready
TTITLE4=Thanks A Lot
TTITLE5=Texas
TTITLE6=Just By Chance - Electric
TTITLE7=Go Ahead... Ignore Me!
TTITLE8=Sweeter than Honey
TTITLE9=Just By Chance - Accoustic
TTITLE10=Gia's Way - Instrumental
TTITLE11=Play For You
TTITLE12=Wintry Wondering
EXTD=
EXTT0=
EXTT1=
EXTT2=
EXTT3=
EXTT4=
EXTT5=
EXTT6=
EXTT7=
EXTT8=
EXTT9=
EXTT10=
EXTT11=
EXTT12=
PLAYORDER=
